<svg width="22" height="22" viewBox="0 0 22 22" fill="none" xmlns="http://www.w3.org/2000/svg">
<path fill-rule="evenodd" clip-rule="evenodd" d="M4.33203 0.333252H17.6654C19.8745 0.333252 21.6654 2.12411 21.6654 4.33325V17.6666C21.6654 19.8757 19.8745 21.6666 17.6654 21.6666H4.33203C2.12289 21.6666 0.332031 19.8757 0.332031 17.6666V4.33325C0.332031 2.12411 2.12289 0.333252 4.33203 0.333252ZM17.2888 7.92853C17.8017 7.40011 17.7891 6.55599 17.2606 6.04313C16.7322 5.53027 15.8881 5.54288 15.3752 6.0713L8.56762 13.0855L6.62216 11.081C6.1093 10.5526 5.26517 10.5399 4.73675 11.0528C4.20833 11.5657 4.19571 12.4098 4.70857 12.9382L7.61083 15.9285C7.86193 16.1872 8.20709 16.3333 8.56762 16.3333C8.92815 16.3333 9.27332 16.1872 9.52442 15.9285L17.2888 7.92853Z" fill="#006400"/>
</svg>
