<svg width="28" height="28" viewBox="0 0 28 28" fill="none" xmlns="http://www.w3.org/2000/svg">
<path fill-rule="evenodd" clip-rule="evenodd" d="M5.66602 0.666992H22.3327C25.0941 0.666992 27.3327 2.90557 27.3327 5.66699V22.3337C27.3327 25.0951 25.0941 27.3337 22.3327 27.3337H5.66602C2.90459 27.3337 0.666016 25.0951 0.666016 22.3337V5.66699C0.666016 2.90557 2.90459 0.666992 5.66602 0.666992ZM21.862 10.1611C22.5031 9.50057 22.4873 8.44541 21.8268 7.80434C21.1663 7.16326 20.1111 7.17903 19.47 7.83956L10.9605 16.6073L8.52867 14.1016C7.8876 13.4411 6.83244 13.4253 6.17192 14.0664C5.51139 14.7075 5.49562 15.7627 6.13669 16.4232L9.76451 20.1611C10.0784 20.4845 10.5098 20.667 10.9605 20.667C11.4112 20.667 11.8426 20.4845 12.1565 20.1611L21.862 10.1611Z" fill="#34C759"/>
</svg>
