<svg width="21" height="20" viewBox="0 0 21 20" fill="none" xmlns="http://www.w3.org/2000/svg">
<path d="M17.7554 2.74408C18.0808 3.06951 18.0808 3.59715 17.7554 3.92259L4.42206 17.2559C4.09662 17.5814 3.56899 17.5814 3.24355 17.2559C2.91811 16.9305 2.91811 16.4028 3.24355 16.0774L16.5769 2.74408C16.9023 2.41864 17.43 2.41864 17.7554 2.74408Z" fill="#667185"/>
<path d="M13.6657 4.4767C12.7272 4.03469 11.6689 3.75 10.4995 3.75C8.04604 3.75 6.08177 5.00308 4.6858 6.33307C3.28661 7.66611 2.37872 9.14973 2.01934 9.7915C1.78382 10.2121 1.75577 10.7143 1.94909 11.1603C2.0841 11.4718 2.31371 11.9544 2.65212 12.5143C2.89016 12.9082 3.40245 13.0346 3.79635 12.7965C4.19024 12.5585 4.31659 12.0462 4.07854 11.6523C3.80635 11.2019 3.61748 10.8124 3.50291 10.5537C3.84104 9.95778 4.64184 8.67693 5.83544 7.53975C7.06834 6.36513 8.64116 5.41667 10.4995 5.41667C11.1678 5.41667 11.7993 5.53937 12.3913 5.75116L13.6657 4.4767Z" fill="#667185"/>
<path d="M15.2416 7.61491C16.392 8.73288 17.1653 9.97087 17.496 10.5537C17.3814 10.8124 17.1926 11.2019 16.9204 11.6523C16.6823 12.0462 16.8087 12.5585 17.2026 12.7965C17.5965 13.0346 18.1087 12.9082 18.3468 12.5143C18.6852 11.9544 18.9148 11.4718 19.0498 11.1603C19.2431 10.7143 19.2151 10.2121 18.9796 9.7915C18.6294 9.16625 17.7587 7.74193 16.4202 6.43629L15.2416 7.61491Z" fill="#667185"/>
<path d="M10.4995 6.66667C10.8023 6.66667 11.0976 6.69898 11.3821 6.76034L9.66725 8.47519C8.95601 8.7262 8.39234 9.28987 8.14133 10.0011L6.42647 11.716C6.36511 11.4315 6.3328 11.1362 6.3328 10.8333C6.3328 8.53215 8.19828 6.66667 10.4995 6.66667Z" fill="#667185"/>
<path d="M10.4995 13.3333C10.2071 13.3333 9.9264 13.2831 9.6656 13.1909L8.41473 14.4418C9.02791 14.7968 9.73996 15 10.4995 15C12.8007 15 14.6661 13.1345 14.6661 10.8333C14.6661 10.0738 14.4629 9.36177 14.1079 8.74859L12.857 9.99947C12.9493 10.2603 12.9995 10.5409 12.9995 10.8333C12.9995 12.214 11.8802 13.3333 10.4995 13.3333Z" fill="#667185"/>
</svg>
