<svg width="20" height="20" viewBox="0 0 20 20" fill="none" xmlns="http://www.w3.org/2000/svg">
<path d="M7.13574 3.19853C8.3494 0.934532 11.6526 0.934529 12.8662 3.19853L18.126 13.0091C19.2814 15.1652 17.6503 17.6669 15.2607 17.6673H4.74121C2.3515 17.667 0.720359 15.1653 1.87598 13.0091L7.13574 3.19853ZM11.1035 4.14287C10.6439 3.286 9.35805 3.28599 8.89844 4.14287L3.63867 13.9544C3.24071 14.6977 3.77112 15.667 4.74121 15.6673H15.2607C16.2307 15.6669 16.7611 14.6977 16.3633 13.9544L11.1035 4.14287ZM10.001 12.9163C10.5762 12.9164 11.043 13.3831 11.043 13.9583C11.043 14.5335 10.5762 15.0002 10.001 15.0003C9.42568 15.0003 8.95898 14.5336 8.95898 13.9583C8.959 13.383 9.42569 12.9163 10.001 12.9163ZM10.001 4.8333C10.5532 4.83338 11.001 5.28108 11.001 5.8333V11.6663C11.001 12.2185 10.5532 12.6662 10.001 12.6663C9.44869 12.6663 9.00098 12.2186 9.00098 11.6663V5.8333C9.00099 5.28103 9.4487 4.8333 10.001 4.8333Z" fill="#344054"/>
</svg>
