<svg width="151" height="150" viewBox="0 0 151 150" fill="none" xmlns="http://www.w3.org/2000/svg">
<path fill-rule="evenodd" clip-rule="evenodd" d="M21.1761 101.11L60.6208 27.5285C66.8953 15.8239 84.1047 15.8238 90.3792 27.5285L129.824 101.11C135.653 111.985 127.547 125 114.945 125H36.0553C23.4527 125 15.3465 111.985 21.1761 101.11ZM75.5 37.5C78.9518 37.5 81.75 40.2982 81.75 43.75V87.5C81.75 90.9518 78.9518 93.75 75.5 93.75C72.0482 93.75 69.25 90.9518 69.25 87.5V43.75C69.25 40.2982 72.0482 37.5 75.5 37.5ZM67.6875 104.688C67.6875 109.002 71.1853 112.5 75.5 112.5C79.8147 112.5 83.3125 109.002 83.3125 104.688C83.3125 100.373 79.8147 96.875 75.5 96.875C71.1853 96.875 67.6875 100.373 67.6875 104.688Z" fill="#CB1A14"/>
</svg>
