<svg width="151" height="150" viewBox="0 0 151 150" fill="none" xmlns="http://www.w3.org/2000/svg">
<path d="M81.75 93.75C81.75 90.2982 78.9518 87.5 75.5 87.5C72.0482 87.5 69.25 90.2982 69.25 93.75V106.25C69.25 109.702 72.0482 112.5 75.5 112.5C78.9518 112.5 81.75 109.702 81.75 106.25V93.75Z" fill="#344054"/>
<path fill-rule="evenodd" clip-rule="evenodd" d="M113 43.75C113 23.0393 96.2107 6.25 75.5 6.25C54.7893 6.25 38 23.0393 38 43.75V56.25C24.1929 56.25 13 67.4429 13 81.25V118.75C13 132.557 24.1929 143.75 38 143.75H113C126.807 143.75 138 132.557 138 118.75V81.25C138 67.4429 126.807 56.25 113 56.25V43.75ZM50.5 43.75C50.5 29.9429 61.6929 18.75 75.5 18.75C89.3071 18.75 100.5 29.9429 100.5 43.75V56.25H50.5V43.75ZM25.5 81.25C25.5 74.3464 31.0964 68.75 38 68.75H113C119.904 68.75 125.5 74.3464 125.5 81.25V118.75C125.5 125.654 119.904 131.25 113 131.25H38C31.0964 131.25 25.5 125.654 25.5 118.75V81.25Z" fill="#344054"/>
</svg>
