<svg width="21" height="20" viewBox="0 0 21 20" fill="none" xmlns="http://www.w3.org/2000/svg">
<path fill-rule="evenodd" clip-rule="evenodd" d="M16.3332 17.5C18.1742 17.5 19.6666 16.0076 19.6666 14.1667V6.68557C19.6669 6.67283 19.6669 6.66005 19.6666 6.64725V5.83333C19.6666 3.99238 18.1742 2.5 16.3332 2.5H4.66656C2.82561 2.5 1.33323 3.99238 1.33323 5.83333V6.64726C1.33293 6.66005 1.33293 6.67282 1.33323 6.68556V14.1667C1.33323 16.0076 2.82561 17.5 4.66656 17.5H16.3332ZM2.9999 14.1667C2.9999 15.0871 3.74609 15.8333 4.66656 15.8333H16.3332C17.2537 15.8333 17.9999 15.0871 17.9999 14.1667V7.89753L11.7379 10.4023C10.9432 10.7202 10.0566 10.7202 9.26193 10.4023L2.9999 7.89753V14.1667ZM11.1189 8.85488L17.9999 6.10247V5.83333C17.9999 4.91286 17.2537 4.16667 16.3332 4.16667H4.66656C3.74609 4.16667 2.9999 4.91286 2.9999 5.83333V6.10247L9.88091 8.85488C10.2783 9.01382 10.7215 9.01382 11.1189 8.85488Z" fill="#667185"/>
</svg>
