<svg width="32" height="32" viewBox="0 0 32 32" fill="none" xmlns="http://www.w3.org/2000/svg">
<rect x="0.5" y="0.5" width="31" height="31" rx="7.5" fill="#FF8D28"/>
<rect x="0.5" y="0.5" width="31" height="31" rx="7.5" stroke="#FF8D28"/>
<path fill-rule="evenodd" clip-rule="evenodd" d="M22 16C22 19.3137 19.3137 22 16 22C12.6863 22 10 19.3137 10 16C10 12.6863 12.6863 10 16 10C19.3137 10 22 12.6863 22 16ZM16 12C16.3682 12 16.6667 12.2985 16.6667 12.6667V17.3333C16.6667 17.7015 16.3682 18 16 18C15.6318 18 15.3333 17.7015 15.3333 17.3333L15.3333 12.6667C15.3333 12.2985 15.6318 12 16 12ZM15.1667 19.1667C15.1667 19.6269 15.5398 20 16 20C16.4602 20 16.8333 19.6269 16.8333 19.1667C16.8333 18.7064 16.4602 18.3333 16 18.3333C15.5398 18.3333 15.1667 18.7064 15.1667 19.1667Z" fill="white"/>
</svg>
