<svg width="151" height="150" viewBox="0 0 151 150" fill="none" xmlns="http://www.w3.org/2000/svg">
<path d="M106.75 25C106.75 21.5482 109.548 18.75 113 18.75C116.452 18.75 119.25 21.5482 119.25 25V45C119.25 48.4518 116.452 51.25 113 51.25H93.5528C90.101 51.25 87.3028 48.4518 87.3028 45C87.3028 41.5482 90.101 38.75 93.5528 38.75H97.8341C91.0506 34.0041 82.8811 31.25 74.1091 31.25C50.8799 31.25 31.75 50.6702 31.75 75C31.75 78.4518 28.9518 81.25 25.5 81.25C22.0482 81.25 19.25 78.4518 19.25 75C19.25 44.1014 43.6462 18.75 74.1091 18.75C86.3577 18.75 97.6454 22.8657 106.75 29.7867V25Z" fill="#006400"/>
<path d="M44.25 125C44.25 128.452 41.4518 131.25 38 131.25C34.5482 131.25 31.75 128.452 31.75 125V105C31.75 101.548 34.5482 98.75 38 98.75H57.4472C60.899 98.75 63.6972 101.548 63.6972 105C63.6972 108.452 60.899 111.25 57.4472 111.25H53.1659C59.9494 115.996 68.1189 118.75 76.8909 118.75C100.12 118.75 119.25 99.3298 119.25 75C119.25 71.5482 122.048 68.75 125.5 68.75C128.952 68.75 131.75 71.5482 131.75 75C131.75 105.899 107.354 131.25 76.8909 131.25C64.6423 131.25 53.3546 127.134 44.25 120.213V125Z" fill="#006400"/>
</svg>
